<?xml version="1.0" standalone="no"?>
<!DOCTYPE svg PUBLIC "-//W3C//DTD SVG 20010904//EN"
 "http://www.w3.org/TR/2001/REC-SVG-20010904/DTD/svg10.dtd">
<svg version="1.0" xmlns="http://www.w3.org/2000/svg"
 width="700.000000pt" height="700.000000pt" viewBox="0 0 700.000000 700.000000"
 preserveAspectRatio="xMidYMid meet">
<metadata>
Created by potrace 1.14, written by Peter Selinger 2001-2017
</metadata>
<g transform="translate(0.000000,700.000000) scale(0.100000,-0.100000)"
fill="#000000" stroke="none">
<path d="M3815 6676 c-72 -18 -116 -39 -183 -85 -57 -39 -142 -124 -142 -143
0 -5 -11 -24 -25 -42 -56 -74 -175 -366 -175 -431 0 -26 -40 -26 -104 -1 -149
60 -360 84 -574 67 -248 -21 -409 -63 -607 -161 -407 -199 -635 -469 -635
-752 0 -99 20 -173 80 -294 67 -136 160 -238 266 -290 l74 -37 -22 -36 c-146
-242 -248 -459 -334 -710 -3 -9 -24 17 -52 65 -164 276 -369 428 -592 441
-167 10 -303 -44 -445 -178 -312 -296 -419 -681 -292 -1054 33 -96 66 -158
140 -265 118 -169 253 -301 430 -419 88 -59 255 -143 333 -168 l53 -16 -29
-33 c-85 -97 -180 -272 -225 -414 -90 -289 -87 -656 9 -924 48 -134 105 -227
196 -318 146 -146 315 -196 513 -152 343 77 615 404 682 818 8 50 15 119 15
154 0 34 2 62 4 62 2 0 54 -34 115 -75 119 -80 333 -191 437 -225 62 -21 66
-24 124 -108 191 -279 391 -463 595 -548 63 -26 80 -29 175 -28 122 1 179 18
282 87 76 50 189 160 247 240 54 74 117 191 150 279 l26 69 160 53 c88 30 225
81 304 115 79 34 145 60 147 58 2 -2 15 -47 28 -101 62 -241 187 -391 361
-432 163 -38 386 29 581 174 317 235 472 669 433 1207 l-11 153 80 100 c92
115 194 266 248 367 20 39 43 77 50 85 20 24 118 256 152 360 54 164 65 219
52 251 -23 55 -96 77 -139 42 -12 -10 -41 -66 -65 -125 -68 -167 -169 -339
-267 -453 -64 -74 -217 -210 -316 -282 -106 -76 -314 -180 -442 -222 -109 -36
-265 -67 -401 -80 -84 -8 -97 -12 -117 -35 -53 -62 -14 -145 73 -155 l49 -6
-125 -73 c-218 -127 -654 -338 -775 -376 -18 -5 -22 3 -38 87 -20 106 -39 138
-90 151 -44 11 -79 -2 -103 -40 -16 -23 -16 -34 -6 -95 35 -201 -16 -438 -153
-714 -82 -167 -131 -241 -227 -341 -82 -85 -149 -129 -214 -139 -127 -20 -375
200 -588 523 -81 124 -209 349 -204 362 2 5 144 153 315 329 172 176 317 331
323 346 7 19 6 35 -4 60 -17 40 -42 55 -93 55 -37 1 -48 -10 -391 -357 -230
-234 -354 -367 -358 -385 l-6 -26 -67 25 c-97 36 -234 107 -331 171 -118 77
-212 175 -309 321 -298 447 -395 938 -289 1456 134 657 587 1343 1281 1941
224 193 428 334 660 458 l107 57 -96 -98 c-169 -173 -269 -309 -377 -513 -30
-58 -65 -133 -77 -167 -22 -61 -22 -62 -4 -100 24 -47 79 -67 122 -42 29 15
30 19 116 199 48 102 144 261 181 299 7 7 -2 -31 -20 -85 -92 -271 -85 -545
20 -782 78 -179 222 -296 432 -354 66 -18 106 -22 253 -22 153 -1 186 2 260
22 317 86 531 324 589 656 16 88 13 321 -4 413 -56 297 -219 528 -450 638 -74
36 -174 65 -221 65 -16 0 -35 4 -43 9 -17 11 164 55 295 72 177 23 485 -19
773 -107 l85 -26 -35 -26 c-132 -99 -247 -279 -297 -462 -49 -180 -54 -410
-12 -580 73 -296 283 -509 579 -587 82 -22 119 -26 246 -26 180 -1 283 20 414
85 141 70 266 213 317 363 9 25 20 43 24 38 10 -10 63 -192 83 -288 22 -102
36 -204 46 -338 10 -130 24 -159 82 -172 31 -7 83 15 93 40 12 31 6 238 -9
344 -38 259 -139 578 -240 756 -13 22 -26 63 -29 90 -49 369 -245 669 -534
814 -97 49 -215 73 -346 70 -105 -2 -115 0 -176 29 -207 96 -481 162 -740 177
-170 11 -553 -10 -720 -39 -222 -38 -464 -112 -672 -204 -5 -2 -8 2 -8 9 0 20
162 172 222 207 97 58 190 85 308 90 58 2 128 0 156 -5 60 -11 90 -3 105 30
25 55 -78 180 -195 237 -57 28 -81 34 -149 37 -46 1 -104 -3 -132 -11z m2206
-770 c198 -69 360 -246 440 -482 102 -301 65 -594 -98 -765 -110 -115 -267
-166 -483 -156 -203 9 -322 57 -441 176 -130 130 -189 287 -190 503 0 257 66
444 211 589 155 156 359 205 561 135z m-1656 -51 c188 -49 343 -205 413 -416
103 -314 48 -634 -143 -824 -126 -127 -261 -177 -475 -178 -203 0 -340 45
-442 147 -123 123 -180 318 -157 541 17 167 66 308 155 442 94 141 235 250
375 287 72 19 201 20 274 1z m-1372 -15 c31 -7 57 -16 57 -19 0 -4 -23 -24
-52 -45 -37 -28 -92 -53 -192 -87 -78 -26 -172 -61 -209 -78 -59 -26 -81 -31
-150 -31 -160 0 -350 -41 -468 -100 -83 -42 -102 -103 -51 -161 35 -40 76 -41
155 -4 32 15 60 25 63 22 3 -2 -17 -23 -45 -46 -27 -23 -82 -80 -122 -127 -40
-47 -89 -94 -110 -105 -45 -22 -73 -70 -65 -105 5 -17 -5 -48 -29 -99 -19 -41
-35 -79 -35 -85 0 -23 -21 -7 -64 51 -88 117 -134 246 -122 341 40 297 469
605 952 683 107 17 400 14 487 -5z m-2157 -1764 c156 -41 311 -191 416 -401
44 -87 86 -219 89 -277 1 -23 -7 -144 -17 -268 -21 -254 -24 -542 -5 -674 6
-48 11 -90 9 -91 -6 -6 -232 91 -333 143 -55 28 -140 78 -190 110 -95 62 -275
207 -275 223 0 5 -6 9 -13 9 -7 0 -38 30 -69 68 -160 195 -236 392 -225 585 4
83 8 98 53 186 99 195 241 336 384 382 67 22 109 23 176 5z m530 -1950 c12
-11 33 -60 48 -109 15 -48 30 -95 33 -104 5 -14 2 -13 -16 4 -32 30 -65 36
-106 19 -52 -22 -61 -50 -47 -154 22 -165 24 -208 13 -299 -21 -176 -75 -289
-171 -360 -107 -80 -105 -77 -105 -121 0 -48 31 -87 76 -97 45 -10 114 30 200
115 124 122 184 277 196 500 5 100 -5 242 -23 330 -3 14 13 -16 34 -67 22 -50
62 -131 89 -180 l48 -88 0 -165 c0 -159 -1 -168 -31 -250 -38 -108 -90 -187
-167 -253 -114 -99 -117 -103 -117 -142 0 -48 44 -95 90 -95 37 0 61 11 115
55 60 48 71 52 48 19 -40 -55 -142 -144 -190 -165 -91 -40 -202 -3 -303 100
-199 204 -270 673 -155 1025 57 174 135 305 246 416 103 101 146 116 195 66z
m4634 -726 c-16 -95 -39 -160 -72 -203 -39 -48 -276 -214 -353 -246 -46 -19
-78 -25 -140 -25 -91 -1 -122 12 -180 71 -32 33 -95 146 -95 170 0 6 23 22 50
37 l50 27 31 -25 c50 -42 90 -36 154 25 30 28 76 83 102 122 39 57 64 80 131
123 45 30 85 54 87 54 7 0 -25 -69 -55 -119 -38 -61 -40 -112 -5 -146 33 -34
93 -34 133 0 58 49 156 288 164 399 1 17 4 -21 6 -84 1 -63 -2 -144 -8 -180z"/>
<path d="M5553 5554 c-8 -4 -8 -12 3 -32 21 -40 17 -90 -11 -137 -33 -57 -81
-79 -152 -72 -51 5 -53 5 -60 -21 -4 -15 -7 -65 -7 -112 1 -294 239 -532 466
-466 132 38 229 195 228 370 -1 122 -62 274 -146 361 -71 75 -140 107 -234
111 -41 2 -80 1 -87 -2z m200 -95 c31 -33 34 -57 12 -99 -29 -56 -113 -60
-149 -8 -33 47 -15 111 37 133 40 18 65 11 100 -26z"/>
<path d="M4367 5486 c-26 -7 -50 -16 -54 -20 -4 -4 -7 -37 -8 -74 0 -53 -5
-74 -22 -98 -31 -44 -85 -67 -139 -61 l-44 5 -21 -70 c-31 -100 -25 -259 13
-339 56 -122 151 -189 269 -189 219 0 405 249 386 518 -8 112 -38 185 -107
254 -81 81 -163 103 -273 74z m140 -50 c39 -34 39 -98 0 -132 -37 -31 -78 -31
-116 2 -24 20 -31 34 -31 62 1 81 86 120 147 68z"/>
<path d="M637 3970 c-27 -17 -49 -69 -42 -99 10 -39 31 -58 113 -97 153 -74
264 -224 307 -417 9 -44 48 -77 90 -77 49 0 74 15 91 55 12 31 11 42 -12 121
-49 172 -146 318 -271 413 -118 89 -229 130 -276 101z"/>
<path d="M498 3513 l-24 -86 66 -66 c82 -82 149 -188 216 -345 45 -107 55
-123 87 -139 56 -28 118 0 133 60 19 76 -159 419 -284 550 -50 52 -135 113
-158 113 -6 0 -22 -39 -36 -87z"/>
<path d="M889 2781 c-21 -22 -29 -39 -29 -66 0 -51 44 -95 95 -95 51 0 95 44
95 95 0 51 -44 95 -95 95 -27 0 -44 -8 -66 -29z"/>
<path d="M6044 6627 c-134 -35 -289 -184 -270 -261 9 -36 43 -48 107 -36 296
56 593 -103 765 -408 51 -91 75 -106 119 -78 33 21 33 58 -1 172 -89 310 -271
537 -479 600 -72 21 -181 26 -241 11z"/>
<path d="M2977 4860 c-54 -42 -41 -134 22 -160 37 -15 93 1 116 33 59 85 -56
191 -138 127z"/>
<path d="M4002 4079 c-75 -29 -152 -107 -181 -184 -27 -72 -31 -177 -7 -222
28 -55 95 -66 147 -24 21 17 24 28 24 93 1 40 6 83 13 94 15 28 70 74 87 74 7
0 27 12 44 26 51 42 41 118 -19 149 -37 19 -43 18 -108 -6z"/>
<path d="M4875 4023 c-318 -29 -547 -98 -654 -198 -68 -64 -85 -111 -79 -218
19 -291 255 -555 603 -671 117 -39 231 -56 380 -56 267 0 493 72 684 218 163
124 264 290 291 478 10 71 10 90 -5 139 -46 160 -282 263 -694 305 -95 9 -433
11 -526 3z m597 -198 c195 -25 354 -74 414 -127 37 -32 47 -66 17 -53 -210 89
-531 133 -878 121 -274 -9 -472 -41 -630 -100 -37 -15 -70 -24 -73 -21 -3 3 3
18 15 33 54 73 289 140 567 162 144 11 425 4 568 -15z m-137 -594 c50 -10 106
-26 125 -35 19 -9 27 -14 18 -12 -10 3 -66 10 -125 17 -163 17 -302 3 -504
-51 -75 -20 -91 -22 -118 -10 -17 7 -31 16 -31 20 0 10 136 56 221 75 96 20
305 19 414 -4z"/>
<path d="M6823 3736 c-22 -19 -28 -32 -28 -66 0 -113 163 -122 181 -9 5 28 1
41 -21 67 -34 41 -89 44 -132 8z"/>
<path d="M2560 2748 c-39 -27 -70 -81 -70 -122 0 -16 9 -48 20 -71 68 -140
281 -93 283 62 1 58 -26 109 -71 136 -44 25 -121 23 -162 -5z"/>
<path d="M1990 2344 c-65 -55 -80 -140 -36 -205 62 -90 190 -90 252 0 44 65
29 150 -36 205 -26 22 -42 26 -90 26 -48 0 -64 -4 -90 -26z"/>
<path d="M4834 2340 c-59 -24 -72 -104 -25 -151 74 -73 184 1 150 101 -17 48
-74 71 -125 50z"/>
<path d="M4025 2198 c-32 -17 -45 -39 -45 -78 0 -78 96 -115 146 -56 63 73
-17 180 -101 134z"/>
<path d="M4575 2065 c-53 -53 -15 -145 60 -145 44 0 85 41 85 85 0 74 -93 112
-145 60z"/>
<path d="M2385 1956 c-17 -7 -43 -28 -58 -45 -94 -112 13 -279 155 -241 136
37 152 223 24 284 -41 19 -80 20 -121 2z"/>
<path d="M3447 1899 c-23 -14 -47 -62 -47 -97 0 -40 -35 -174 -66 -252 -25
-63 -107 -190 -123 -190 -4 0 -26 -17 -49 -38 -36 -33 -42 -45 -42 -79 0 -54
37 -93 90 -93 92 0 253 173 295 317 7 26 23 80 34 118 35 115 52 229 40 264
-18 52 -85 77 -132 50z"/>
<path d="M3884 1823 c-46 -9 -65 -46 -85 -165 -35 -205 -98 -387 -175 -504
-36 -55 -119 -144 -193 -205 -24 -21 -31 -35 -31 -64 0 -49 15 -74 55 -91 40
-16 52 -13 125 36 174 117 307 350 385 671 31 130 42 247 25 278 -9 18 -71 55
-82 50 -2 -1 -13 -4 -24 -6z"/>
</g>
</svg>
