<svg
        xmlns="http://www.w3.org/2000/svg"
        id="svg"
        version="1.1"
        viewBox="0 0 211.66666 203.72917"
        height="770"
        width="800">
    <style
            id="style_set">
        .set {
        fill: #ffffff;
        opacity: 0;
        }
        .set:hover {
        fill: rgba(78, 78, 75, 0.5);
        opacity: 0.6;
        }

    </style>
    <g
            style="display:inline"
            transform="translate(0,-93.27082)"
            id="layer1">
        <rect
                y="93.270836"
                x="0"
                height="203.72917"
                width="211.66667"
                id="rect4518"
                style="fill:#e6e6e6;fill-opacity:1;stroke:none;stroke-width:0.42195562;stroke-miterlimit:4;stroke-dasharray:none;stroke-opacity:1"/>
    </g>
    <g
            style="display:inline"
            id="layer2">
        <circle
                id="circleTwo"
                cx="-141.54924"
                cy="-66.557045"
                r="61.725"
                style="fill:none;fill-opacity:1;stroke:#06ff00;stroke-width:0.79375666;stroke-miterlimit:4;stroke-dasharray:none;stroke-opacity:1"
                transform="matrix(-0.99800895,-0.06307242,0.06886956,-0.99762567,0,0)"
        />
        <circle
                id="circleThree"
                cx="-114.23131"
                cy="-122.03889"
                r="61.725"
                style="display:inline;fill:none;fill-opacity:1;stroke:#0029ff;stroke-width:0.79375666;stroke-miterlimit:4;stroke-dasharray:none;stroke-opacity:1"
                transform="matrix(-0.99800895,-0.06307242,0.06886956,-0.99762567,0,0)"
        />
        <circle
                id="circleOne"
                cx="-79.96759"
                cy="-70.450401"
                r="61.725"
                transform="matrix(-0.99800895,-0.06307242,0.06886956,-0.99762567,0,0)"
                style="fill:none;fill-opacity:1;stroke:#fe0000;stroke-width:0.79375666;stroke-miterlimit:4;stroke-dasharray:none;stroke-opacity:1"
        />
    </g>
    <g
            class="set"
            style="display:inline">
        <path
                id="set0"
                transform="scale(0.26458333)"
                d="M 0,0 V 770 H 800 V 0 Z M 282.86914,51.40625 A 232.61534,233.98266 44.999957 0 1 299.37305,51.863281 232.61534,233.98266 44.999957 0 1 401.01953,82.912109 232.61534,233.98266 44.999957 0 1 532.67383,51.863281 232.61534,233.98266 44.999957 0 1 749.3457,299.4082 232.61534,233.98266 44.999957 0 1 632.38867,486.35742 232.61534,233.98266 44.999957 0 1 631.86133,502.09375 232.61534,233.98266 44.999957 0 1 383.04102,720.2207 232.61534,233.98266 44.999957 0 1 165.89844,486.66602 232.61534,233.98266 44.999957 0 1 50.554688,269.99023 232.61534,233.98266 44.999957 0 1 282.86914,51.40625 Z"/>
    </g>
    <g class="set">
        <path
                id="set2"
                transform="scale(0.26458333)"
                d="M 516.16992,51.40625 A 232.61534,233.98266 44.999957 0 0 401.01758,82.912109 232.61534,233.98266 44.999957 0 1 516.28125,285.28516 232.61534,233.98266 44.999957 0 1 632.38672,486.42188 232.61534,233.98266 44.999957 0 0 749.3457,299.4082 232.61534,233.98266 44.999957 0 0 532.67383,51.863281 232.61534,233.98266 44.999957 0 0 516.16992,51.40625 Z"/>
    </g>
    <g class="set">
        <path
                id="set3"
                transform="scale(0.26458333)"
                d="M 398.88086,486.48633 A 232.61534,233.98266 44.999957 0 1 267.22656,517.53516 232.61534,233.98266 44.999957 0 1 165.89844,486.66602 232.61534,233.98266 44.999957 0 0 383.04102,720.2207 232.61534,233.98266 44.999957 0 0 631.86133,502.09375 232.61534,233.98266 44.999957 0 0 632.13477,486.51758 232.61534,233.98266 44.999957 0 1 500.52539,517.53516 232.61534,233.98266 44.999957 0 1 398.88086,486.48633 Z"/>
    </g>
    <g class="set">
        <path
                id="set1"
                transform="scale(0.26458333)"
                d="M 282.86914,51.40625 A 232.61534,233.98266 44.999957 0 0 50.554688,269.99023 232.61534,233.98266 44.999957 0 0 165.89258,486.8457 232.61534,233.98266 44.999957 0 1 166.36914,472.67578 232.61534,233.98266 44.999957 0 1 283.60547,285.55273 232.61534,233.98266 44.999957 0 1 283.85352,269.99023 232.61534,233.98266 44.999957 0 1 401.01758,82.912109 232.61534,233.98266 44.999957 0 0 299.37305,51.863281 232.61534,233.98266 44.999957 0 0 282.86914,51.40625 Z"/>
    </g>
    <g class="set">
        <path
                id="set23"
                transform="scale(0.26458333)"
                d="m 516.29297,285.3125 c 0.0593,4.69916 -0.0234,9.39987 -0.24805,14.0957 -5.43925,77.8335 -49.39689,148.02881 -117.14453,187.06641 30.98309,18.06021 65.76321,28.69037 101.625,31.06055 45.99287,2.84605 91.87791,-8.00232 131.86328,-31.17578 0.003,-83.12272 -44.22247,-159.70927 -116.0957,-201.04688 z"/>
    </g>
    <g class="set">
        <path
                id="set123"
                transform="scale(0.26458333)"
                d="M 398.68359,254.0918 A 232.61534,233.98266 44.999957 0 0 283.58008,285.56836 232.61534,233.98266 44.999957 0 0 398.88281,486.48633 232.61534,233.98266 44.999957 0 0 516.04492,299.4082 232.61534,233.98266 44.999957 0 0 516.29297,285.29297 232.61534,233.98266 44.999957 0 0 415.1875,254.54883 232.61534,233.98266 44.999957 0 0 398.68359,254.0918 Z"/>
    </g>
    <g class="set">
        <path
                id="set13"
                transform="scale(0.26458333)"
                d="m 283.32617,285.72656 a 232.61534,233.98266 44.999957 0 0 -116.95703,186.94922 232.61534,233.98266 44.999957 0 0 -0.4707,13.99024 232.61534,233.98266 44.999957 0 0 101.32812,30.86914 232.61534,233.98266 44.999957 0 0 131.69336,-31.02735 232.61534,233.98266 44.999957 0 1 -115.59375,-200.78125 z"/>
    </g>
    <g class="set">
        <path
                id="set12"
                transform="scale(0.26458333)"
                d="M 401.01758,82.912109 A 232.61534,233.98266 44.999957 0 0 283.85352,269.99023 232.61534,233.98266 44.999957 0 0 283.58008,285.56836 232.61534,233.98266 44.999955 0 1 415.1875,254.54883 232.61534,233.98266 44.999955 0 1 516.29297,285.29297 232.61534,233.98266 44.999957 0 0 401.01758,82.912109 Z"/>
    </g>
</svg>
