<svg id="Ebene_2" data-name="Ebene 2" xmlns="http://www.w3.org/2000/svg" viewBox="0 0 1304.77 1488.51"><defs><style>.cls-1{fill:#fff;}</style></defs><path class="cls-1" d="M968.62,519.71q-104.42,18-209.66,30.68Q654.48,563,549.46,570.22q-59.39,4.11-118.87,6.51c-3.21.13-3.23,5.13,0,5q106.2-4.31,212.1-14,105.12-9.65,209.67-24.63,58.92-8.43,117.59-18.56c3.16-.54,1.82-5.36-1.33-4.82Z"/><path class="cls-1" d="M282,559.74c46.86-11.41,94.12-21.1,141.6-29.5,47.77-8.45,95.75-15.63,143.82-22.05,47.87-6.39,95.82-12,143.8-17.46,48.42-5.48,96.84-11.1,145.34-15.78,48.78-4.7,97.73-8.2,146.75-8.41q9.15,0,18.29.07l-1.26-4.65c-82.08,39.61-167.9,70.67-254.32,99.32-86,28.51-172.71,54.76-258,85.15-24.08,8.58-48.08,17.43-71.83,26.88-23.39,9.31-46.49,19.53-68,32.73-2,1.25-1.31,4.79,1.26,4.66a2760.19,2760.19,0,0,1,283.9.77q40.41,2.19,80.74,5.57c3.21.27,3.19-4.73,0-5a2761.54,2761.54,0,0,0-283.75-9.1q-40.47.78-80.89,2.76l1.26,4.66c38.89-23.91,83-39,125.7-54.47S582,626.18,625,612.2c86.08-27.93,172.64-54.61,257.4-86.43,47.61-17.87,94.63-37.39,140.44-59.5,2.32-1.12,1.08-4.63-1.26-4.66-49.27-.6-98.49,2.3-147.54,6.71-48.87,4.39-97.62,10.08-146.37,15.55-48,5.39-96,10.93-143.84,17.16s-95.58,13.1-143.14,21.19c-47.77,8.12-95.35,17.46-142.53,28.51q-8.76,2.06-17.51,4.19c-3.12.76-1.8,5.58,1.33,4.82Z"/><path class="cls-1" d="M233.74,1301.4c-14.1,0-27,.35-39.85-.06-56.18-1.8-103.67-23.33-141.62-64.69C18.48,1199.81,1,1155.87.78,1105.78c-.34-81.66-2-163.39.8-244.95C4.11,786.3,42.07,731.29,107.13,695.45c26.74-14.72,55.78-21.93,86.39-22.37a45.3,45.3,0,0,0,5.47-.78c-1.81-12.66-3.6-24.89-5.31-37.12a551.38,551.38,0,0,1-1.45-141.47c12-101.06,48.49-192.4,110.44-273Q423.35,63.69,615.91,16C661.68,4.7,708.32-1.28,755.39.23c159.45,5.14,294.85,65.08,403.28,182.7,73.94,80.21,119.5,175,138,282.79a542.71,542.71,0,0,1,5.24,148.65c-12.64,121.49-59.6,228.06-141.43,318.82-59.83,66.36-131.84,115.2-215.24,147.09a545.78,545.78,0,0,1-152,34.19c-5.48.45-7,2.3-7.56,7.45-9.91,89.6-75.9,159.9-164.93,175.36-12.17,2.12-24.7,2.76-37.08,3-23.12.47-46.25.29-69.38,0-4.78,0-7.56,1.53-10.44,5.25-38.06,49.15-79.88,94.77-129.18,132.88a607.3,607.3,0,0,1-57.9,39.31c-22,13.29-45.43,14.49-68.89,2.43-33.32-17.11-46.68-51.15-35.39-87,7.37-23.38,13.05-47.29,19-71.08C233.13,1316,233,1309.35,233.74,1301.4Zm69.59,90.91c3.54-2.53,5.89-4.15,8.19-5.86,56.27-41.75,102.57-93.19,144.14-149.15,9.49-12.77,21.31-19.2,37.38-19,31.07.39,62.16.22,93.24,0a130.25,130.25,0,0,0,22.25-1.74c58.29-10.48,97.81-57.34,98-116.82.3-75.93.11-151.87,0-227.8a116.14,116.14,0,0,0-1.47-20.08c-10.46-59.16-57.64-99-117.52-99q-191.72-.17-383.43,0a121,121,0,0,0-23,2c-57.43,11.23-96.07,58.25-96.17,117q-.18,114.64,0,229.29A116.5,116.5,0,0,0,86.75,1122c10.81,58.74,57.89,97.87,117.71,98,24.37.07,48.73,0,73.1,0,22.71.08,39.91,16.12,40.91,38.79,1.39,31.15-.09,62.16-6.36,92.8C309.44,1364.67,306.51,1377.65,303.33,1392.31ZM439.77,518.63c.26-1.76.57-3,.61-4.16,1.62-53.78,7.11-107.11,19.19-159.61,1.47-6.39-2.06-6.71-6.24-8.15-34.69-11.92-69.38-23.85-103.9-36.25-5.58-2-8.07-1.4-11.1,3.76C311.93,359.13,292.9,407,282.09,457.9c-4.21,19.81-6.6,40-9.93,60.73Zm781.56,79H1074.18c-17.79,0-17.79,0-18.86,18.05,0,.25-.08.49-.09.74a985,985,0,0,1-18.68,144.78c-1.12,5.48.32,7.35,5.32,9q41.31,13.68,82.39,28c9.29,3.22,18.35,7.12,27.92,10.87C1191.8,744.18,1215.3,674.61,1221.33,597.67Zm0-78.87c-.76-7.12-1.36-13.26-2.08-19.39-7.89-66.89-30.52-128.69-64.17-186.72-2.18-3.76-4.1-4.32-8.29-2.83q-52.5,18.78-105.25,36.91c-4.55,1.56-6.2,3-5.13,8.33a1057.19,1057.19,0,0,1,18.66,155.2c.34,7.06,2.33,9.13,9.47,9.09,49.46-.32,98.91-.16,148.36-.18C1215.33,519.21,1217.76,519,1221.33,518.8ZM788.54,385.28a45.87,45.87,0,0,0-.65,5.35c0,40.82.09,81.64-.15,122.46,0,6.06,3,6.17,7.4,6.17q86.15-.09,172.29-.07a61,61,0,0,0,6.51-.68c0-4,.16-7.18,0-10.38A926.68,926.68,0,0,0,957.4,378.07c-2.18-10.91-2.09-10.42-13.29-9-36.18,4.57-72.37,9-108.62,12.95C820,383.72,804.4,384.21,788.54,385.28ZM974.21,600c-2.62-.29-4.31-.64-6-.64-57.91,0-115.83.06-173.75-.15-6.15,0-6.7,2.63-6.68,7.65.15,39.32.29,78.65-.1,118-.07,7.54,2.05,9.31,9.49,9.82q52.3,3.58,104.52,8.7c17.69,1.73,35.24,4.86,53.45,7.44A862,862,0,0,0,974.21,600Zm-453.85-83.3h185.7V385.28L539,367.8C528.7,416.47,522,466,520.36,516.71Zm267.5,510.66c3.95-1.84,6.4-2.88,8.76-4.1,18.79-9.65,34.89-22.83,49.33-38.11,37.19-39.37,61.71-86.27,80.84-136.37,2.26-5.92,4.28-11.92,6.59-18.39-3-.79-4.82-1.4-6.72-1.77-43-8.26-86.45-12.45-130.16-14.48-6.88-.32-8.82,1.51-8.79,8.5.26,65.48.15,131,.15,196.44ZM933,288.63c-.64-3.55-.73-5.26-1.27-6.82-13.78-40.36-31.51-78.84-56-113.87-21.15-30.22-45.81-56.9-79.15-74.17-2.46-1.28-5.08-2.25-8.06-3.55V304.15ZM706,302.82V91.2c-1.14-.15-1.7-.41-2.07-.24-2.26,1-4.51,2.07-6.71,3.21-25.15,13.16-45.16,32.34-62.74,54.23-30.51,38-51.82,81.07-69.05,126.36-1.47,3.86-2.67,7.82-4.25,12.46C609.48,295.16,657.05,301.65,706,302.82Zm.2,404.14c.2-3.49.44-5.88.44-8.27,0-30.86-.21-61.74.19-92.6.1-7.26-2.53-8.57-9-8.54-56.19.21-112.39.12-168.58.14-2.67,0-5.35.23-9.2.4,2.06,24.13,4.06,47.53,6.13,71.78h9c18.4,0,36.8,0,55.2,0,39.92-.09,76.3,11.41,109.49,33.41C701.61,704.45,703.49,705.41,706.19,707ZM438.72,600.15H271.46c4.27,22.52,8.48,43.9,12.31,65.35,1.1,6.16,4,7.71,10.09,7.68,47-.26,94-.14,140.94-.16,2.63,0,5.26-.25,8.56-.41C441.78,648,440.26,624.21,438.72,600.15Zm575.13,248c-10.67,26-19.65,50.44-30.7,73.94s-24.24,46.09-37,70c59.22-28.57,110.75-65.82,155.7-115.71ZM482,269.44a660.32,660.32,0,0,1,66.38-143.58c-59.16,27.62-110.68,64.93-155.72,114.76Zm619.34-28.56c-30.15-39-130.31-112.26-155.87-114.4,29.63,44,50.6,91.8,67.23,143.07Z"/><path class="cls-1" d="M395.93,1100.69c-52.46,0-104.91.12-157.36-.07-16.52-.06-28.49-8.49-35.38-23.1-6.8-14.42-5.09-28.78,4.54-41.56,8.79-11.66,21.32-15.46,35.47-15.43,40.52.09,81,0,121.57,0q91.73,0,183.46,0c22.12,0,37.87,11.5,42.82,30.91,6.3,24.73-11.51,48.9-37,49.07-52.7.36-105.4.11-158.1.11Z"/><path class="cls-1" d="M396,944c-52.2,0-104.4.27-156.6-.11-31.1-.22-49.94-32.69-35-59.6,6.45-11.58,16.47-18.33,29.79-19.78a77.09,77.09,0,0,1,8.17-.53q153.25,0,306.5,0c20.41,0,35.81,10.52,41.43,27.81,8.6,26.42-10,52-38.48,52.13C499.91,944.16,448,944,396,944Z"/></svg>