<?xml version="1.0" encoding="UTF-8"?><svg id="a" xmlns="http://www.w3.org/2000/svg" viewBox="0 0 500 500"><path d="M478.04,363.77c4.29,0,7.35-.2,10.38,.04,6.7,.53,11.23,3.41,10.53,11.01-1.02,11.07,3.16,22.86-4.8,32.97-5.82,7.39-12.52,11.92-22.7,11.91-147.46-.21-294.91-.13-442.37-.16-15.54,0-25.16-9.56-25.27-24.83-.04-6.21,.48-12.47-.12-18.63-.96-9.77,3.39-13.3,12.61-12.38,1.66,.17,3.37-.19,6.4-.4,0-4.21,0-8.23,0-12.26,0-78.01,.08-156.02-.08-234.03-.03-13.92,4.32-25.16,17.06-31.76,3.79-1.96,8.46-3.09,12.74-3.1,131.92-.16,263.83-.16,395.75-.1,17.35,0,29.76,13.54,29.82,32.73,.15,48.67,.05,97.34,.05,146.01,0,33.79,0,67.58,0,102.98Zm-16.99-.38c.2-2.76,.42-4.43,.43-6.1,.02-80.41,.06-160.82-.01-241.23-.01-13.37-5-17.73-19.49-17.73-127.4-.01-254.8-.01-382.2,0-16.6,0-20.53,3.99-20.53,20.87-.01,77.65,0,155.3,0,232.95,0,3.64,0,7.29,0,11.25H461.05ZM19.5,380.68c-1.55,20.97-.08,22.57,19.57,22.57,141.24,0,282.49,0,423.73,0,18.27,0,21.65-4.25,17.64-22.35h-195.04c-2.92,14.69-6.57,17.67-21.11,17.73-8.29,.03-16.58,0-24.86,0-17.86,0-19.75-1.36-24.81-17.95H19.5Zm207.13,.19c0,9.36,7,10.68,23.36,10.64,17.01-.05,22.69-2.3,22.69-10.64h-46.05Z"/><path d="M249.24,356.65c-60.74,0-121.49,0-182.23,0-17.09,0-20.33-3.33-20.33-20.71,0-70.38,0-140.75,0-211.13,0-15.74,3.75-19.5,19.47-19.5,122.87-.01,245.74-.01,368.61,0,15.64,0,19.29,3.74,19.29,19.68,.01,70.72,.01,141.44,0,212.17,0,15.82-3.64,19.49-19.47,19.49-61.78,.03-123.56,.01-185.34,.01Zm-190.73-12.05H442.17V117.49H58.52v227.1Z"/></svg>