<?xml version="1.0" encoding="UTF-8"?><svg id="a" xmlns="http://www.w3.org/2000/svg" viewBox="0 0 500 500"><path d="M135.86,261.15c10.12-7.71,20.52-15.11,30.23-23.31,3.57-3.02,7.09-7.64,7.92-12.04,1.74-9.27,1.96-18.87,2.27-28.35,.32-9.67,1.24-18.77-8.66-26.4-4.82-3.71-6.87-13.99-6.42-21.05,1.57-24.16,3.51-48.43,7.65-72.25C181.04,7.54,238.93-7.58,293.04,10.97c37.29,12.78,47.63,46.73,51.89,82.35,2.13,17.8,4.36,35.66,4.87,53.55,.23,8.1-1.01,19.34-6.2,23.83-9.65,8.34-9.16,17.49-8.83,27.7,.13,4.07,.62,8.14,.48,12.19-.54,15.39,3.24,27.27,19.53,33.9,7.64,3.11,13.12,11.5,22.25,19.98-15.71,2.28-27.51,3.77-39.23,5.75-27.04,4.57-52.39,13.53-75.39,28.9-2.99,2-9.11,3.2-11.55,1.53-32-21.95-68.01-30.81-105.96-33.87-2.19-.18-4.34-.79-6.51-1.21l-2.53-4.42Zm56.77-97.27c10.64,45.51,28.1,63.23,62.12,63.78,34.32,.55,50.38-15.46,64.07-64.33,7.82-.07,16.21,.87,15.91-11.79-.35-15.01-12.56-5.09-17.7-9.19-6.47-43.18-13.86-54.75-36.13-57.68-20.4,44.34-58.78,57.11-102.94,60.05-2.66,16.85-2.1,17.6,14.67,19.17Zm102.93,69.42c-27.33,13.54-53.41,12.95-80.23,.15-3.02,7.14-5.74,13.57-9.97,23.57,27.02-11.16,36.95,8.79,50.59,23.22,12.59-16.34,24.07-32.66,49.28-24.42-3.93-9.16-6.55-15.25-9.67-22.52Z"/><path d="M390.02,273.83v41.82h-14.5v-25.99c-40.26,2.43-76.92,10.29-107.82,35.93-2.08,1.73-3.59,5.41-3.6,8.19-.22,47.4-.16,94.8-.16,141.49,36.65-9.71,72.63-19.24,110.67-29.32,.28-6.17,.67-14.96,1.1-24.73,4.81-.39,9.07-.73,14.16-1.14v40.24c-28.26,6.38-56.04,11.75-83.28,19.14-17.75,4.82-34.69,17.54-52.01,17.6-16.83,.05-33.31-12.96-50.64-17.72-26.84-7.37-54.27-12.61-82.63-19.02v-39.25h13.96c.45,9.33,.88,18.13,1.21,24.89,37.37,9.9,73.36,19.44,110.63,29.31,0-16.41,0-33.8,0-51.19,0-27.59-.54-55.19,.28-82.76,.31-10.5-3.69-16.66-11.84-22.18-29.44-19.96-62.56-27.04-99.07-29.67v26.28h-15.29v-41.48c49.04-.94,94.36,9.29,134.33,40.32,38.97-31.02,84.39-40.71,134.49-40.77Z"/><path d="M376.57,324.35c28.1,.79,38.72,10.21,40.36,36.55,1.92,30.89-9.37,47.8-33.89,50.77-27.05,3.28-44.78-17.8-37.77-44.28,1.3-4.9,.92-10.73-.32-15.73-2.71-10.92,.23-19.11,10.62-23.09,6.57-2.52,13.97-2.89,20.99-4.22Zm-8.97,32.28c-2.54,5.03-5.03,8.84-6.46,13.01-6.23,18.13,3.84,29.54,22.66,26.09,9.58-1.76,16.56-7.25,16.4-16.84-.2-11.55,.76-26.37-5.69-33.72-7.8-8.89-22.68-5.06-36.15-1.5,3.85,5.4,6.42,8.99,9.25,12.96Z"/><path d="M134.45,324.33c7.02,1.33,14.35,1.81,20.99,4.19,9.16,3.28,12.64,10.49,11.33,20.44-.91,6.96-1.63,14.28-.46,21.1,3.32,19.24-5.6,36.55-22.18,40.95-20.87,5.54-43.37-5.1-47.51-24.7-2.63-12.46-2.5-26.08-.65-38.75,2.25-15.37,16.11-22.35,38.47-23.22Zm17.01,20.42c-28.05-12.69-44.36-1.96-42.06,26.88,.18,2.24-.14,5.05,1.06,6.57,4.67,5.93,8.93,14.32,15.11,16.34,6.35,2.07,18.16,.18,21.45-4.38,3.96-5.5,1.99-15.68,1.52-23.77-.19-3.17-3.28-6.17-5.1-9.34,2.74-4.21,5.35-8.21,8.02-12.3Z"/></svg>