<?xml version="1.0" encoding="UTF-8"?><svg id="a" xmlns="http://www.w3.org/2000/svg" viewBox="0 0 500 500"><path d="M64.12,308.69c-.26,10.99-1.54,21.69,7.71,31.93,8.89,9.82,7.39,22.25,1.01,34.18-2.03,3.8-1.07,9.28-1.22,14-.28,8.76,2.06,18.51-1.03,26.08-6.55,16.05-15.88,30.96-25.65,49.32-15.15-20.67-29.94-38.58-30.81-60.72-.6-15.19,2.63-30.24-2.52-45.6-1.61-4.8,1.35-13.41,5.22-17.29,8.1-8.14,8.03-17.29,7.97-27.26-.2-34.24-.1-68.48-.12-102.72,0-.45-.09-.92,0-1.35,5.14-22.09,4.48-42.22-22.5-54.41,10.43-7.36,17.71-13.11,25.55-17.94C97.87,93.64,167.97,50.31,238.57,7.84c6.14-3.69,17.91-4.89,23.56-1.47,77,46.66,153.39,94.34,229.9,141.81,1.87,1.16,3.43,2.8,7.77,6.41-25.41,22.3-50.08,43.94-78.02,68.46,0-11.35,.08-18.67-.01-25.98-.36-28.25-9.54-43.01-36.55-51.66-17.81-5.7-36.73-9.34-55.39-10.7-54.48-3.98-109.03-4.14-162.56,9.01-13.36,3.28-26.46,8.91-38.58,15.48-7.79,4.22-13.56,12.15-19.37,19.45,72.22-31.07,146.74-28.43,221.54-18.2,18.4,2.52,36.35,9.89,53.89,16.65,13.2,5.09,20.65,15.5,18.93,30.85-.6,5.34,.3,10.84-.19,16.2-.74,8.01,1.46,12.06,9.77,16.01,34.9,16.58,37.96,66.21,4.96,87.88-12.29,8.07-17.9,18.54-24.18,30.59-14.94,28.63-28.84,58.42-48.06,84.07-53.1,70.85-135.87,70.98-188.55-.09-20.65-27.87-34.27-60.9-51.71-91.23-4.22-7.34-10.51-13.66-16.56-19.75-7.76-7.82-16.23-14.94-25.03-22.94Zm73.25-33.18c-6.92-.76-12.26-1.87-17.6-1.81-7.79,.08-17.14-1.76-18.94,9.87-1.69,10.9,5.46,21.1,17.18,21.47,9.79,.31,12.57,5.11,15.62,12.95,14.87,38.23,31.47,75.64,58.79,107.04,11.98,13.77,25.66,25.44,44.07,29.63,30.4,6.92,53.46-6.2,72.9-27.86,25.65-28.56,41.64-62.77,56.05-97.81,4.98-12.1,6.91-25.37,25.3-26.21,10.14-.47,14.44-11.91,10.91-20.92-1.69-4.31-10.83-6.89-16.99-7.93-5.81-.98-12.14,1.09-19.96,2.02v-29.88c-68.01-17.07-134.74-19.58-202.03-5.57-23.18,4.83-23.29,4.25-24.26,27.47-.09,2.16-.58,4.31-1.04,7.54Zm-73.14-11.63c10.7-9.8,21.22-19.44,32.34-29.62-9-7.11-19.79-15.65-32.34-25.57v55.19Z"/></svg>